<mxfile host="app.diagrams.net" modified="2022-07-13T02:48:55.960Z" agent="5.0 (Macintosh; Intel Mac OS X 10_15_7) AppleWebKit/537.36 (KHTML, like Gecko) Chrome/103.0.0.0 Safari/537.36" etag="M7u0AyywZR9K-ul-mPau" version="20.0.4" type="github">
  <diagram id="R2lEEEUBdFMjLlhIrx00" name="Page-1">
    <mxGraphModel dx="1166" dy="719" grid="1" gridSize="10" guides="1" tooltips="1" connect="1" arrows="1" fold="1" page="1" pageScale="1" pageWidth="850" pageHeight="1100" background="#F4F1DE" math="0" shadow="0" extFonts="Permanent Marker^https://fonts.googleapis.com/css?family=Permanent+Marker">
      <root>
        <mxCell id="0" />
        <mxCell id="1" parent="0" />
        <mxCell id="uK0X8DLzZR2Nq17mi_8r-1" value="Greenteas" style="shape=table;startSize=30;container=1;collapsible=1;childLayout=tableLayout;fixedRows=1;rowLines=0;fontStyle=1;align=center;resizeLast=1;rounded=0;sketch=0;fontColor=#393C56;strokeColor=#E07A5F;fillColor=#F2CC8F;" vertex="1" parent="1">
          <mxGeometry x="560" y="100" width="180" height="220" as="geometry" />
        </mxCell>
        <mxCell id="uK0X8DLzZR2Nq17mi_8r-2" value="" style="shape=tableRow;horizontal=0;startSize=0;swimlaneHead=0;swimlaneBody=0;fillColor=none;collapsible=0;dropTarget=0;points=[[0,0.5],[1,0.5]];portConstraint=eastwest;top=0;left=0;right=0;bottom=1;rounded=0;sketch=0;fontColor=#393C56;strokeColor=#E07A5F;" vertex="1" parent="uK0X8DLzZR2Nq17mi_8r-1">
          <mxGeometry y="30" width="180" height="30" as="geometry" />
        </mxCell>
        <mxCell id="uK0X8DLzZR2Nq17mi_8r-3" value="PK" style="shape=partialRectangle;connectable=0;fillColor=none;top=0;left=0;bottom=0;right=0;fontStyle=1;overflow=hidden;rounded=0;sketch=0;fontColor=#393C56;strokeColor=#E07A5F;" vertex="1" parent="uK0X8DLzZR2Nq17mi_8r-2">
          <mxGeometry width="30" height="30" as="geometry">
            <mxRectangle width="30" height="30" as="alternateBounds" />
          </mxGeometry>
        </mxCell>
        <mxCell id="uK0X8DLzZR2Nq17mi_8r-4" value="id" style="shape=partialRectangle;connectable=0;fillColor=none;top=0;left=0;bottom=0;right=0;align=left;spacingLeft=6;fontStyle=5;overflow=hidden;rounded=0;sketch=0;fontColor=#393C56;strokeColor=#E07A5F;" vertex="1" parent="uK0X8DLzZR2Nq17mi_8r-2">
          <mxGeometry x="30" width="150" height="30" as="geometry">
            <mxRectangle width="150" height="30" as="alternateBounds" />
          </mxGeometry>
        </mxCell>
        <mxCell id="uK0X8DLzZR2Nq17mi_8r-5" value="" style="shape=tableRow;horizontal=0;startSize=0;swimlaneHead=0;swimlaneBody=0;fillColor=none;collapsible=0;dropTarget=0;points=[[0,0.5],[1,0.5]];portConstraint=eastwest;top=0;left=0;right=0;bottom=0;rounded=0;sketch=0;fontColor=#393C56;strokeColor=#E07A5F;" vertex="1" parent="uK0X8DLzZR2Nq17mi_8r-1">
          <mxGeometry y="60" width="180" height="30" as="geometry" />
        </mxCell>
        <mxCell id="uK0X8DLzZR2Nq17mi_8r-6" value="" style="shape=partialRectangle;connectable=0;fillColor=none;top=0;left=0;bottom=0;right=0;editable=1;overflow=hidden;rounded=0;sketch=0;fontColor=#393C56;strokeColor=#E07A5F;" vertex="1" parent="uK0X8DLzZR2Nq17mi_8r-5">
          <mxGeometry width="30" height="30" as="geometry">
            <mxRectangle width="30" height="30" as="alternateBounds" />
          </mxGeometry>
        </mxCell>
        <mxCell id="uK0X8DLzZR2Nq17mi_8r-7" value="name" style="shape=partialRectangle;connectable=0;fillColor=none;top=0;left=0;bottom=0;right=0;align=left;spacingLeft=6;overflow=hidden;rounded=0;sketch=0;fontColor=#393C56;strokeColor=#E07A5F;" vertex="1" parent="uK0X8DLzZR2Nq17mi_8r-5">
          <mxGeometry x="30" width="150" height="30" as="geometry">
            <mxRectangle width="150" height="30" as="alternateBounds" />
          </mxGeometry>
        </mxCell>
        <mxCell id="uK0X8DLzZR2Nq17mi_8r-8" value="" style="shape=tableRow;horizontal=0;startSize=0;swimlaneHead=0;swimlaneBody=0;fillColor=none;collapsible=0;dropTarget=0;points=[[0,0.5],[1,0.5]];portConstraint=eastwest;top=0;left=0;right=0;bottom=0;rounded=0;sketch=0;fontColor=#393C56;strokeColor=#E07A5F;" vertex="1" parent="uK0X8DLzZR2Nq17mi_8r-1">
          <mxGeometry y="90" width="180" height="30" as="geometry" />
        </mxCell>
        <mxCell id="uK0X8DLzZR2Nq17mi_8r-9" value="" style="shape=partialRectangle;connectable=0;fillColor=none;top=0;left=0;bottom=0;right=0;editable=1;overflow=hidden;rounded=0;sketch=0;fontColor=#393C56;strokeColor=#E07A5F;" vertex="1" parent="uK0X8DLzZR2Nq17mi_8r-8">
          <mxGeometry width="30" height="30" as="geometry">
            <mxRectangle width="30" height="30" as="alternateBounds" />
          </mxGeometry>
        </mxCell>
        <mxCell id="uK0X8DLzZR2Nq17mi_8r-10" value="phone_number" style="shape=partialRectangle;connectable=0;fillColor=none;top=0;left=0;bottom=0;right=0;align=left;spacingLeft=6;overflow=hidden;rounded=0;sketch=0;fontColor=#393C56;strokeColor=#E07A5F;" vertex="1" parent="uK0X8DLzZR2Nq17mi_8r-8">
          <mxGeometry x="30" width="150" height="30" as="geometry">
            <mxRectangle width="150" height="30" as="alternateBounds" />
          </mxGeometry>
        </mxCell>
        <mxCell id="uK0X8DLzZR2Nq17mi_8r-11" value="" style="shape=tableRow;horizontal=0;startSize=0;swimlaneHead=0;swimlaneBody=0;fillColor=none;collapsible=0;dropTarget=0;points=[[0,0.5],[1,0.5]];portConstraint=eastwest;top=0;left=0;right=0;bottom=0;rounded=0;sketch=0;fontColor=#393C56;strokeColor=#E07A5F;" vertex="1" parent="uK0X8DLzZR2Nq17mi_8r-1">
          <mxGeometry y="120" width="180" height="30" as="geometry" />
        </mxCell>
        <mxCell id="uK0X8DLzZR2Nq17mi_8r-12" value="" style="shape=partialRectangle;connectable=0;fillColor=none;top=0;left=0;bottom=0;right=0;editable=1;overflow=hidden;rounded=0;sketch=0;fontColor=#393C56;strokeColor=#E07A5F;" vertex="1" parent="uK0X8DLzZR2Nq17mi_8r-11">
          <mxGeometry width="30" height="30" as="geometry">
            <mxRectangle width="30" height="30" as="alternateBounds" />
          </mxGeometry>
        </mxCell>
        <mxCell id="uK0X8DLzZR2Nq17mi_8r-13" value="address" style="shape=partialRectangle;connectable=0;fillColor=none;top=0;left=0;bottom=0;right=0;align=left;spacingLeft=6;overflow=hidden;rounded=0;sketch=0;fontColor=#393C56;strokeColor=#E07A5F;" vertex="1" parent="uK0X8DLzZR2Nq17mi_8r-11">
          <mxGeometry x="30" width="150" height="30" as="geometry">
            <mxRectangle width="150" height="30" as="alternateBounds" />
          </mxGeometry>
        </mxCell>
        <mxCell id="uK0X8DLzZR2Nq17mi_8r-14" style="shape=tableRow;horizontal=0;startSize=0;swimlaneHead=0;swimlaneBody=0;fillColor=none;collapsible=0;dropTarget=0;points=[[0,0.5],[1,0.5]];portConstraint=eastwest;top=0;left=0;right=0;bottom=0;rounded=0;sketch=0;fontColor=#393C56;strokeColor=#E07A5F;" vertex="1" parent="uK0X8DLzZR2Nq17mi_8r-1">
          <mxGeometry y="150" width="180" height="30" as="geometry" />
        </mxCell>
        <mxCell id="uK0X8DLzZR2Nq17mi_8r-15" style="shape=partialRectangle;connectable=0;fillColor=none;top=0;left=0;bottom=0;right=0;editable=1;overflow=hidden;rounded=0;sketch=0;fontColor=#393C56;strokeColor=#E07A5F;" vertex="1" parent="uK0X8DLzZR2Nq17mi_8r-14">
          <mxGeometry width="30" height="30" as="geometry">
            <mxRectangle width="30" height="30" as="alternateBounds" />
          </mxGeometry>
        </mxCell>
        <mxCell id="uK0X8DLzZR2Nq17mi_8r-16" value="latitude(緯度)" style="shape=partialRectangle;connectable=0;fillColor=none;top=0;left=0;bottom=0;right=0;align=left;spacingLeft=6;overflow=hidden;rounded=0;sketch=0;fontColor=#393C56;strokeColor=#E07A5F;" vertex="1" parent="uK0X8DLzZR2Nq17mi_8r-14">
          <mxGeometry x="30" width="150" height="30" as="geometry">
            <mxRectangle width="150" height="30" as="alternateBounds" />
          </mxGeometry>
        </mxCell>
        <mxCell id="uK0X8DLzZR2Nq17mi_8r-17" style="shape=tableRow;horizontal=0;startSize=0;swimlaneHead=0;swimlaneBody=0;fillColor=none;collapsible=0;dropTarget=0;points=[[0,0.5],[1,0.5]];portConstraint=eastwest;top=0;left=0;right=0;bottom=0;rounded=0;sketch=0;fontColor=#393C56;strokeColor=#E07A5F;" vertex="1" parent="uK0X8DLzZR2Nq17mi_8r-1">
          <mxGeometry y="180" width="180" height="30" as="geometry" />
        </mxCell>
        <mxCell id="uK0X8DLzZR2Nq17mi_8r-18" style="shape=partialRectangle;connectable=0;fillColor=none;top=0;left=0;bottom=0;right=0;editable=1;overflow=hidden;rounded=0;sketch=0;fontColor=#393C56;strokeColor=#E07A5F;" vertex="1" parent="uK0X8DLzZR2Nq17mi_8r-17">
          <mxGeometry width="30" height="30" as="geometry">
            <mxRectangle width="30" height="30" as="alternateBounds" />
          </mxGeometry>
        </mxCell>
        <mxCell id="uK0X8DLzZR2Nq17mi_8r-19" value="longitude(経度)" style="shape=partialRectangle;connectable=0;fillColor=none;top=0;left=0;bottom=0;right=0;align=left;spacingLeft=6;overflow=hidden;rounded=0;sketch=0;fontColor=#393C56;strokeColor=#E07A5F;" vertex="1" parent="uK0X8DLzZR2Nq17mi_8r-17">
          <mxGeometry x="30" width="150" height="30" as="geometry">
            <mxRectangle width="150" height="30" as="alternateBounds" />
          </mxGeometry>
        </mxCell>
        <mxCell id="uK0X8DLzZR2Nq17mi_8r-20" value="Temples" style="shape=table;startSize=30;container=1;collapsible=1;childLayout=tableLayout;fixedRows=1;rowLines=0;fontStyle=1;align=center;resizeLast=1;rounded=0;sketch=0;fontColor=#393C56;strokeColor=#E07A5F;fillColor=#F2CC8F;" vertex="1" parent="1">
          <mxGeometry x="560" y="360" width="180" height="220" as="geometry" />
        </mxCell>
        <mxCell id="uK0X8DLzZR2Nq17mi_8r-21" value="" style="shape=tableRow;horizontal=0;startSize=0;swimlaneHead=0;swimlaneBody=0;fillColor=none;collapsible=0;dropTarget=0;points=[[0,0.5],[1,0.5]];portConstraint=eastwest;top=0;left=0;right=0;bottom=1;rounded=0;sketch=0;fontColor=#393C56;strokeColor=#E07A5F;" vertex="1" parent="uK0X8DLzZR2Nq17mi_8r-20">
          <mxGeometry y="30" width="180" height="30" as="geometry" />
        </mxCell>
        <mxCell id="uK0X8DLzZR2Nq17mi_8r-22" value="PK" style="shape=partialRectangle;connectable=0;fillColor=none;top=0;left=0;bottom=0;right=0;fontStyle=1;overflow=hidden;rounded=0;sketch=0;fontColor=#393C56;strokeColor=#E07A5F;" vertex="1" parent="uK0X8DLzZR2Nq17mi_8r-21">
          <mxGeometry width="30" height="30" as="geometry">
            <mxRectangle width="30" height="30" as="alternateBounds" />
          </mxGeometry>
        </mxCell>
        <mxCell id="uK0X8DLzZR2Nq17mi_8r-23" value="id" style="shape=partialRectangle;connectable=0;fillColor=none;top=0;left=0;bottom=0;right=0;align=left;spacingLeft=6;fontStyle=5;overflow=hidden;rounded=0;sketch=0;fontColor=#393C56;strokeColor=#E07A5F;" vertex="1" parent="uK0X8DLzZR2Nq17mi_8r-21">
          <mxGeometry x="30" width="150" height="30" as="geometry">
            <mxRectangle width="150" height="30" as="alternateBounds" />
          </mxGeometry>
        </mxCell>
        <mxCell id="uK0X8DLzZR2Nq17mi_8r-24" value="" style="shape=tableRow;horizontal=0;startSize=0;swimlaneHead=0;swimlaneBody=0;fillColor=none;collapsible=0;dropTarget=0;points=[[0,0.5],[1,0.5]];portConstraint=eastwest;top=0;left=0;right=0;bottom=0;rounded=0;sketch=0;fontColor=#393C56;strokeColor=#E07A5F;" vertex="1" parent="uK0X8DLzZR2Nq17mi_8r-20">
          <mxGeometry y="60" width="180" height="30" as="geometry" />
        </mxCell>
        <mxCell id="uK0X8DLzZR2Nq17mi_8r-25" value="" style="shape=partialRectangle;connectable=0;fillColor=none;top=0;left=0;bottom=0;right=0;editable=1;overflow=hidden;rounded=0;sketch=0;fontColor=#393C56;strokeColor=#E07A5F;" vertex="1" parent="uK0X8DLzZR2Nq17mi_8r-24">
          <mxGeometry width="30" height="30" as="geometry">
            <mxRectangle width="30" height="30" as="alternateBounds" />
          </mxGeometry>
        </mxCell>
        <mxCell id="uK0X8DLzZR2Nq17mi_8r-26" value="name" style="shape=partialRectangle;connectable=0;fillColor=none;top=0;left=0;bottom=0;right=0;align=left;spacingLeft=6;overflow=hidden;rounded=0;sketch=0;fontColor=#393C56;strokeColor=#E07A5F;" vertex="1" parent="uK0X8DLzZR2Nq17mi_8r-24">
          <mxGeometry x="30" width="150" height="30" as="geometry">
            <mxRectangle width="150" height="30" as="alternateBounds" />
          </mxGeometry>
        </mxCell>
        <mxCell id="uK0X8DLzZR2Nq17mi_8r-27" value="" style="shape=tableRow;horizontal=0;startSize=0;swimlaneHead=0;swimlaneBody=0;fillColor=none;collapsible=0;dropTarget=0;points=[[0,0.5],[1,0.5]];portConstraint=eastwest;top=0;left=0;right=0;bottom=0;rounded=0;sketch=0;fontColor=#393C56;strokeColor=#E07A5F;" vertex="1" parent="uK0X8DLzZR2Nq17mi_8r-20">
          <mxGeometry y="90" width="180" height="30" as="geometry" />
        </mxCell>
        <mxCell id="uK0X8DLzZR2Nq17mi_8r-28" value="" style="shape=partialRectangle;connectable=0;fillColor=none;top=0;left=0;bottom=0;right=0;editable=1;overflow=hidden;rounded=0;sketch=0;fontColor=#393C56;strokeColor=#E07A5F;" vertex="1" parent="uK0X8DLzZR2Nq17mi_8r-27">
          <mxGeometry width="30" height="30" as="geometry">
            <mxRectangle width="30" height="30" as="alternateBounds" />
          </mxGeometry>
        </mxCell>
        <mxCell id="uK0X8DLzZR2Nq17mi_8r-29" value="phone_number" style="shape=partialRectangle;connectable=0;fillColor=none;top=0;left=0;bottom=0;right=0;align=left;spacingLeft=6;overflow=hidden;rounded=0;sketch=0;fontColor=#393C56;strokeColor=#E07A5F;" vertex="1" parent="uK0X8DLzZR2Nq17mi_8r-27">
          <mxGeometry x="30" width="150" height="30" as="geometry">
            <mxRectangle width="150" height="30" as="alternateBounds" />
          </mxGeometry>
        </mxCell>
        <mxCell id="uK0X8DLzZR2Nq17mi_8r-30" value="" style="shape=tableRow;horizontal=0;startSize=0;swimlaneHead=0;swimlaneBody=0;fillColor=none;collapsible=0;dropTarget=0;points=[[0,0.5],[1,0.5]];portConstraint=eastwest;top=0;left=0;right=0;bottom=0;rounded=0;sketch=0;fontColor=#393C56;strokeColor=#E07A5F;" vertex="1" parent="uK0X8DLzZR2Nq17mi_8r-20">
          <mxGeometry y="120" width="180" height="30" as="geometry" />
        </mxCell>
        <mxCell id="uK0X8DLzZR2Nq17mi_8r-31" value="" style="shape=partialRectangle;connectable=0;fillColor=none;top=0;left=0;bottom=0;right=0;editable=1;overflow=hidden;rounded=0;sketch=0;fontColor=#393C56;strokeColor=#E07A5F;" vertex="1" parent="uK0X8DLzZR2Nq17mi_8r-30">
          <mxGeometry width="30" height="30" as="geometry">
            <mxRectangle width="30" height="30" as="alternateBounds" />
          </mxGeometry>
        </mxCell>
        <mxCell id="uK0X8DLzZR2Nq17mi_8r-32" value="address" style="shape=partialRectangle;connectable=0;fillColor=none;top=0;left=0;bottom=0;right=0;align=left;spacingLeft=6;overflow=hidden;rounded=0;sketch=0;fontColor=#393C56;strokeColor=#E07A5F;" vertex="1" parent="uK0X8DLzZR2Nq17mi_8r-30">
          <mxGeometry x="30" width="150" height="30" as="geometry">
            <mxRectangle width="150" height="30" as="alternateBounds" />
          </mxGeometry>
        </mxCell>
        <mxCell id="uK0X8DLzZR2Nq17mi_8r-33" style="shape=tableRow;horizontal=0;startSize=0;swimlaneHead=0;swimlaneBody=0;fillColor=none;collapsible=0;dropTarget=0;points=[[0,0.5],[1,0.5]];portConstraint=eastwest;top=0;left=0;right=0;bottom=0;rounded=0;sketch=0;fontColor=#393C56;strokeColor=#E07A5F;" vertex="1" parent="uK0X8DLzZR2Nq17mi_8r-20">
          <mxGeometry y="150" width="180" height="30" as="geometry" />
        </mxCell>
        <mxCell id="uK0X8DLzZR2Nq17mi_8r-34" style="shape=partialRectangle;connectable=0;fillColor=none;top=0;left=0;bottom=0;right=0;editable=1;overflow=hidden;rounded=0;sketch=0;fontColor=#393C56;strokeColor=#E07A5F;" vertex="1" parent="uK0X8DLzZR2Nq17mi_8r-33">
          <mxGeometry width="30" height="30" as="geometry">
            <mxRectangle width="30" height="30" as="alternateBounds" />
          </mxGeometry>
        </mxCell>
        <mxCell id="uK0X8DLzZR2Nq17mi_8r-35" value="latitude(緯度)" style="shape=partialRectangle;connectable=0;fillColor=none;top=0;left=0;bottom=0;right=0;align=left;spacingLeft=6;overflow=hidden;rounded=0;sketch=0;fontColor=#393C56;strokeColor=#E07A5F;" vertex="1" parent="uK0X8DLzZR2Nq17mi_8r-33">
          <mxGeometry x="30" width="150" height="30" as="geometry">
            <mxRectangle width="150" height="30" as="alternateBounds" />
          </mxGeometry>
        </mxCell>
        <mxCell id="uK0X8DLzZR2Nq17mi_8r-36" style="shape=tableRow;horizontal=0;startSize=0;swimlaneHead=0;swimlaneBody=0;fillColor=none;collapsible=0;dropTarget=0;points=[[0,0.5],[1,0.5]];portConstraint=eastwest;top=0;left=0;right=0;bottom=0;rounded=0;sketch=0;fontColor=#393C56;strokeColor=#E07A5F;" vertex="1" parent="uK0X8DLzZR2Nq17mi_8r-20">
          <mxGeometry y="180" width="180" height="30" as="geometry" />
        </mxCell>
        <mxCell id="uK0X8DLzZR2Nq17mi_8r-37" style="shape=partialRectangle;connectable=0;fillColor=none;top=0;left=0;bottom=0;right=0;editable=1;overflow=hidden;rounded=0;sketch=0;fontColor=#393C56;strokeColor=#E07A5F;" vertex="1" parent="uK0X8DLzZR2Nq17mi_8r-36">
          <mxGeometry width="30" height="30" as="geometry">
            <mxRectangle width="30" height="30" as="alternateBounds" />
          </mxGeometry>
        </mxCell>
        <mxCell id="uK0X8DLzZR2Nq17mi_8r-38" value="longitude(経度)" style="shape=partialRectangle;connectable=0;fillColor=none;top=0;left=0;bottom=0;right=0;align=left;spacingLeft=6;overflow=hidden;rounded=0;sketch=0;fontColor=#393C56;strokeColor=#E07A5F;" vertex="1" parent="uK0X8DLzZR2Nq17mi_8r-36">
          <mxGeometry x="30" width="150" height="30" as="geometry">
            <mxRectangle width="150" height="30" as="alternateBounds" />
          </mxGeometry>
        </mxCell>
        <mxCell id="uK0X8DLzZR2Nq17mi_8r-39" value="Users" style="shape=table;startSize=30;container=1;collapsible=1;childLayout=tableLayout;fixedRows=1;rowLines=0;fontStyle=1;align=center;resizeLast=1;rounded=0;sketch=0;fontColor=#393C56;strokeColor=#E07A5F;fillColor=#F2CC8F;" vertex="1" parent="1">
          <mxGeometry x="20" y="320" width="180" height="130" as="geometry" />
        </mxCell>
        <mxCell id="uK0X8DLzZR2Nq17mi_8r-40" value="" style="shape=tableRow;horizontal=0;startSize=0;swimlaneHead=0;swimlaneBody=0;fillColor=none;collapsible=0;dropTarget=0;points=[[0,0.5],[1,0.5]];portConstraint=eastwest;top=0;left=0;right=0;bottom=1;rounded=0;sketch=0;fontColor=#393C56;strokeColor=#E07A5F;" vertex="1" parent="uK0X8DLzZR2Nq17mi_8r-39">
          <mxGeometry y="30" width="180" height="30" as="geometry" />
        </mxCell>
        <mxCell id="uK0X8DLzZR2Nq17mi_8r-41" value="PK" style="shape=partialRectangle;connectable=0;fillColor=none;top=0;left=0;bottom=0;right=0;fontStyle=1;overflow=hidden;rounded=0;sketch=0;fontColor=#393C56;strokeColor=#E07A5F;" vertex="1" parent="uK0X8DLzZR2Nq17mi_8r-40">
          <mxGeometry width="30" height="30" as="geometry">
            <mxRectangle width="30" height="30" as="alternateBounds" />
          </mxGeometry>
        </mxCell>
        <mxCell id="uK0X8DLzZR2Nq17mi_8r-42" value="id" style="shape=partialRectangle;connectable=0;fillColor=none;top=0;left=0;bottom=0;right=0;align=left;spacingLeft=6;fontStyle=5;overflow=hidden;rounded=0;sketch=0;fontColor=#393C56;strokeColor=#E07A5F;" vertex="1" parent="uK0X8DLzZR2Nq17mi_8r-40">
          <mxGeometry x="30" width="150" height="30" as="geometry">
            <mxRectangle width="150" height="30" as="alternateBounds" />
          </mxGeometry>
        </mxCell>
        <mxCell id="uK0X8DLzZR2Nq17mi_8r-43" value="" style="shape=tableRow;horizontal=0;startSize=0;swimlaneHead=0;swimlaneBody=0;fillColor=none;collapsible=0;dropTarget=0;points=[[0,0.5],[1,0.5]];portConstraint=eastwest;top=0;left=0;right=0;bottom=0;rounded=0;sketch=0;fontColor=#393C56;strokeColor=#E07A5F;" vertex="1" parent="uK0X8DLzZR2Nq17mi_8r-39">
          <mxGeometry y="60" width="180" height="30" as="geometry" />
        </mxCell>
        <mxCell id="uK0X8DLzZR2Nq17mi_8r-44" value="" style="shape=partialRectangle;connectable=0;fillColor=none;top=0;left=0;bottom=0;right=0;editable=1;overflow=hidden;rounded=0;sketch=0;fontColor=#393C56;strokeColor=#E07A5F;" vertex="1" parent="uK0X8DLzZR2Nq17mi_8r-43">
          <mxGeometry width="30" height="30" as="geometry">
            <mxRectangle width="30" height="30" as="alternateBounds" />
          </mxGeometry>
        </mxCell>
        <mxCell id="uK0X8DLzZR2Nq17mi_8r-45" value="name" style="shape=partialRectangle;connectable=0;fillColor=none;top=0;left=0;bottom=0;right=0;align=left;spacingLeft=6;overflow=hidden;rounded=0;sketch=0;fontColor=#393C56;strokeColor=#E07A5F;" vertex="1" parent="uK0X8DLzZR2Nq17mi_8r-43">
          <mxGeometry x="30" width="150" height="30" as="geometry">
            <mxRectangle width="150" height="30" as="alternateBounds" />
          </mxGeometry>
        </mxCell>
        <mxCell id="uK0X8DLzZR2Nq17mi_8r-46" value="" style="shape=tableRow;horizontal=0;startSize=0;swimlaneHead=0;swimlaneBody=0;fillColor=none;collapsible=0;dropTarget=0;points=[[0,0.5],[1,0.5]];portConstraint=eastwest;top=0;left=0;right=0;bottom=0;rounded=0;sketch=0;fontColor=#393C56;strokeColor=#E07A5F;" vertex="1" parent="uK0X8DLzZR2Nq17mi_8r-39">
          <mxGeometry y="90" width="180" height="30" as="geometry" />
        </mxCell>
        <mxCell id="uK0X8DLzZR2Nq17mi_8r-47" value="" style="shape=partialRectangle;connectable=0;fillColor=none;top=0;left=0;bottom=0;right=0;editable=1;overflow=hidden;rounded=0;sketch=0;fontColor=#393C56;strokeColor=#E07A5F;" vertex="1" parent="uK0X8DLzZR2Nq17mi_8r-46">
          <mxGeometry width="30" height="30" as="geometry">
            <mxRectangle width="30" height="30" as="alternateBounds" />
          </mxGeometry>
        </mxCell>
        <mxCell id="uK0X8DLzZR2Nq17mi_8r-48" value="user_avater" style="shape=partialRectangle;connectable=0;fillColor=none;top=0;left=0;bottom=0;right=0;align=left;spacingLeft=6;overflow=hidden;rounded=0;sketch=0;fontColor=#393C56;strokeColor=#E07A5F;" vertex="1" parent="uK0X8DLzZR2Nq17mi_8r-46">
          <mxGeometry x="30" width="150" height="30" as="geometry">
            <mxRectangle width="150" height="30" as="alternateBounds" />
          </mxGeometry>
        </mxCell>
        <mxCell id="uK0X8DLzZR2Nq17mi_8r-52" value="Authentications" style="shape=table;startSize=30;container=1;collapsible=1;childLayout=tableLayout;fixedRows=1;rowLines=0;fontStyle=1;align=center;resizeLast=1;rounded=0;sketch=0;fontColor=#393C56;strokeColor=#E07A5F;fillColor=#F2CC8F;" vertex="1" parent="1">
          <mxGeometry x="20" y="110" width="180" height="160" as="geometry" />
        </mxCell>
        <mxCell id="uK0X8DLzZR2Nq17mi_8r-53" value="" style="shape=tableRow;horizontal=0;startSize=0;swimlaneHead=0;swimlaneBody=0;fillColor=none;collapsible=0;dropTarget=0;points=[[0,0.5],[1,0.5]];portConstraint=eastwest;top=0;left=0;right=0;bottom=1;rounded=0;sketch=0;fontColor=#393C56;strokeColor=#E07A5F;" vertex="1" parent="uK0X8DLzZR2Nq17mi_8r-52">
          <mxGeometry y="30" width="180" height="30" as="geometry" />
        </mxCell>
        <mxCell id="uK0X8DLzZR2Nq17mi_8r-54" value="PK" style="shape=partialRectangle;connectable=0;fillColor=none;top=0;left=0;bottom=0;right=0;fontStyle=1;overflow=hidden;rounded=0;sketch=0;fontColor=#393C56;strokeColor=#E07A5F;" vertex="1" parent="uK0X8DLzZR2Nq17mi_8r-53">
          <mxGeometry width="30" height="30" as="geometry">
            <mxRectangle width="30" height="30" as="alternateBounds" />
          </mxGeometry>
        </mxCell>
        <mxCell id="uK0X8DLzZR2Nq17mi_8r-55" value="id" style="shape=partialRectangle;connectable=0;fillColor=none;top=0;left=0;bottom=0;right=0;align=left;spacingLeft=6;fontStyle=5;overflow=hidden;rounded=0;sketch=0;fontColor=#393C56;strokeColor=#E07A5F;" vertex="1" parent="uK0X8DLzZR2Nq17mi_8r-53">
          <mxGeometry x="30" width="150" height="30" as="geometry">
            <mxRectangle width="150" height="30" as="alternateBounds" />
          </mxGeometry>
        </mxCell>
        <mxCell id="uK0X8DLzZR2Nq17mi_8r-56" value="" style="shape=tableRow;horizontal=0;startSize=0;swimlaneHead=0;swimlaneBody=0;fillColor=none;collapsible=0;dropTarget=0;points=[[0,0.5],[1,0.5]];portConstraint=eastwest;top=0;left=0;right=0;bottom=0;rounded=0;sketch=0;fontColor=#393C56;strokeColor=#E07A5F;" vertex="1" parent="uK0X8DLzZR2Nq17mi_8r-52">
          <mxGeometry y="60" width="180" height="30" as="geometry" />
        </mxCell>
        <mxCell id="uK0X8DLzZR2Nq17mi_8r-57" value="" style="shape=partialRectangle;connectable=0;fillColor=none;top=0;left=0;bottom=0;right=0;editable=1;overflow=hidden;rounded=0;sketch=0;fontColor=#393C56;strokeColor=#E07A5F;" vertex="1" parent="uK0X8DLzZR2Nq17mi_8r-56">
          <mxGeometry width="30" height="30" as="geometry">
            <mxRectangle width="30" height="30" as="alternateBounds" />
          </mxGeometry>
        </mxCell>
        <mxCell id="uK0X8DLzZR2Nq17mi_8r-58" value="provider" style="shape=partialRectangle;connectable=0;fillColor=none;top=0;left=0;bottom=0;right=0;align=left;spacingLeft=6;overflow=hidden;rounded=0;sketch=0;fontColor=#393C56;strokeColor=#E07A5F;" vertex="1" parent="uK0X8DLzZR2Nq17mi_8r-56">
          <mxGeometry x="30" width="150" height="30" as="geometry">
            <mxRectangle width="150" height="30" as="alternateBounds" />
          </mxGeometry>
        </mxCell>
        <mxCell id="uK0X8DLzZR2Nq17mi_8r-59" value="" style="shape=tableRow;horizontal=0;startSize=0;swimlaneHead=0;swimlaneBody=0;fillColor=none;collapsible=0;dropTarget=0;points=[[0,0.5],[1,0.5]];portConstraint=eastwest;top=0;left=0;right=0;bottom=0;rounded=0;sketch=0;fontColor=#393C56;strokeColor=#E07A5F;" vertex="1" parent="uK0X8DLzZR2Nq17mi_8r-52">
          <mxGeometry y="90" width="180" height="30" as="geometry" />
        </mxCell>
        <mxCell id="uK0X8DLzZR2Nq17mi_8r-60" value="" style="shape=partialRectangle;connectable=0;fillColor=none;top=0;left=0;bottom=0;right=0;editable=1;overflow=hidden;rounded=0;sketch=0;fontColor=#393C56;strokeColor=#E07A5F;" vertex="1" parent="uK0X8DLzZR2Nq17mi_8r-59">
          <mxGeometry width="30" height="30" as="geometry">
            <mxRectangle width="30" height="30" as="alternateBounds" />
          </mxGeometry>
        </mxCell>
        <mxCell id="uK0X8DLzZR2Nq17mi_8r-61" value="uid" style="shape=partialRectangle;connectable=0;fillColor=none;top=0;left=0;bottom=0;right=0;align=left;spacingLeft=6;overflow=hidden;rounded=0;sketch=0;fontColor=#393C56;strokeColor=#E07A5F;" vertex="1" parent="uK0X8DLzZR2Nq17mi_8r-59">
          <mxGeometry x="30" width="150" height="30" as="geometry">
            <mxRectangle width="150" height="30" as="alternateBounds" />
          </mxGeometry>
        </mxCell>
        <mxCell id="uK0X8DLzZR2Nq17mi_8r-62" value="" style="shape=tableRow;horizontal=0;startSize=0;swimlaneHead=0;swimlaneBody=0;fillColor=none;collapsible=0;dropTarget=0;points=[[0,0.5],[1,0.5]];portConstraint=eastwest;top=0;left=0;right=0;bottom=0;rounded=0;sketch=0;fontColor=#393C56;strokeColor=#E07A5F;" vertex="1" parent="uK0X8DLzZR2Nq17mi_8r-52">
          <mxGeometry y="120" width="180" height="30" as="geometry" />
        </mxCell>
        <mxCell id="uK0X8DLzZR2Nq17mi_8r-63" value="FK" style="shape=partialRectangle;connectable=0;fillColor=none;top=0;left=0;bottom=0;right=0;editable=1;overflow=hidden;rounded=0;sketch=0;fontColor=#393C56;strokeColor=#E07A5F;" vertex="1" parent="uK0X8DLzZR2Nq17mi_8r-62">
          <mxGeometry width="30" height="30" as="geometry">
            <mxRectangle width="30" height="30" as="alternateBounds" />
          </mxGeometry>
        </mxCell>
        <mxCell id="uK0X8DLzZR2Nq17mi_8r-64" value="user_id" style="shape=partialRectangle;connectable=0;fillColor=none;top=0;left=0;bottom=0;right=0;align=left;spacingLeft=6;overflow=hidden;rounded=0;sketch=0;fontColor=#393C56;strokeColor=#E07A5F;" vertex="1" parent="uK0X8DLzZR2Nq17mi_8r-62">
          <mxGeometry x="30" width="150" height="30" as="geometry">
            <mxRectangle width="150" height="30" as="alternateBounds" />
          </mxGeometry>
        </mxCell>
        <mxCell id="uK0X8DLzZR2Nq17mi_8r-65" value="GreenteaLikes" style="shape=table;startSize=30;container=1;collapsible=1;childLayout=tableLayout;fixedRows=1;rowLines=0;fontStyle=1;align=center;resizeLast=1;rounded=0;sketch=0;fontColor=#393C56;strokeColor=#E07A5F;fillColor=#F2CC8F;" vertex="1" parent="1">
          <mxGeometry x="280" y="50" width="180" height="130" as="geometry" />
        </mxCell>
        <mxCell id="uK0X8DLzZR2Nq17mi_8r-66" value="" style="shape=tableRow;horizontal=0;startSize=0;swimlaneHead=0;swimlaneBody=0;fillColor=none;collapsible=0;dropTarget=0;points=[[0,0.5],[1,0.5]];portConstraint=eastwest;top=0;left=0;right=0;bottom=1;rounded=0;sketch=0;fontColor=#393C56;strokeColor=#E07A5F;" vertex="1" parent="uK0X8DLzZR2Nq17mi_8r-65">
          <mxGeometry y="30" width="180" height="30" as="geometry" />
        </mxCell>
        <mxCell id="uK0X8DLzZR2Nq17mi_8r-67" value="PK" style="shape=partialRectangle;connectable=0;fillColor=none;top=0;left=0;bottom=0;right=0;fontStyle=1;overflow=hidden;rounded=0;sketch=0;fontColor=#393C56;strokeColor=#E07A5F;" vertex="1" parent="uK0X8DLzZR2Nq17mi_8r-66">
          <mxGeometry width="30" height="30" as="geometry">
            <mxRectangle width="30" height="30" as="alternateBounds" />
          </mxGeometry>
        </mxCell>
        <mxCell id="uK0X8DLzZR2Nq17mi_8r-68" value="id" style="shape=partialRectangle;connectable=0;fillColor=none;top=0;left=0;bottom=0;right=0;align=left;spacingLeft=6;fontStyle=5;overflow=hidden;rounded=0;sketch=0;fontColor=#393C56;strokeColor=#E07A5F;" vertex="1" parent="uK0X8DLzZR2Nq17mi_8r-66">
          <mxGeometry x="30" width="150" height="30" as="geometry">
            <mxRectangle width="150" height="30" as="alternateBounds" />
          </mxGeometry>
        </mxCell>
        <mxCell id="uK0X8DLzZR2Nq17mi_8r-69" value="" style="shape=tableRow;horizontal=0;startSize=0;swimlaneHead=0;swimlaneBody=0;fillColor=none;collapsible=0;dropTarget=0;points=[[0,0.5],[1,0.5]];portConstraint=eastwest;top=0;left=0;right=0;bottom=0;rounded=0;sketch=0;fontColor=#393C56;strokeColor=#E07A5F;" vertex="1" parent="uK0X8DLzZR2Nq17mi_8r-65">
          <mxGeometry y="60" width="180" height="30" as="geometry" />
        </mxCell>
        <mxCell id="uK0X8DLzZR2Nq17mi_8r-70" value="" style="shape=partialRectangle;connectable=0;fillColor=none;top=0;left=0;bottom=0;right=0;editable=1;overflow=hidden;rounded=0;sketch=0;fontColor=#393C56;strokeColor=#E07A5F;" vertex="1" parent="uK0X8DLzZR2Nq17mi_8r-69">
          <mxGeometry width="30" height="30" as="geometry">
            <mxRectangle width="30" height="30" as="alternateBounds" />
          </mxGeometry>
        </mxCell>
        <mxCell id="uK0X8DLzZR2Nq17mi_8r-71" value="greentea_id" style="shape=partialRectangle;connectable=0;fillColor=none;top=0;left=0;bottom=0;right=0;align=left;spacingLeft=6;overflow=hidden;rounded=0;sketch=0;fontColor=#393C56;strokeColor=#E07A5F;" vertex="1" parent="uK0X8DLzZR2Nq17mi_8r-69">
          <mxGeometry x="30" width="150" height="30" as="geometry">
            <mxRectangle width="150" height="30" as="alternateBounds" />
          </mxGeometry>
        </mxCell>
        <mxCell id="uK0X8DLzZR2Nq17mi_8r-72" value="" style="shape=tableRow;horizontal=0;startSize=0;swimlaneHead=0;swimlaneBody=0;fillColor=none;collapsible=0;dropTarget=0;points=[[0,0.5],[1,0.5]];portConstraint=eastwest;top=0;left=0;right=0;bottom=0;rounded=0;sketch=0;fontColor=#393C56;strokeColor=#E07A5F;" vertex="1" parent="uK0X8DLzZR2Nq17mi_8r-65">
          <mxGeometry y="90" width="180" height="30" as="geometry" />
        </mxCell>
        <mxCell id="uK0X8DLzZR2Nq17mi_8r-73" value="" style="shape=partialRectangle;connectable=0;fillColor=none;top=0;left=0;bottom=0;right=0;editable=1;overflow=hidden;rounded=0;sketch=0;fontColor=#393C56;strokeColor=#E07A5F;" vertex="1" parent="uK0X8DLzZR2Nq17mi_8r-72">
          <mxGeometry width="30" height="30" as="geometry">
            <mxRectangle width="30" height="30" as="alternateBounds" />
          </mxGeometry>
        </mxCell>
        <mxCell id="uK0X8DLzZR2Nq17mi_8r-74" value="user_id" style="shape=partialRectangle;connectable=0;fillColor=none;top=0;left=0;bottom=0;right=0;align=left;spacingLeft=6;overflow=hidden;rounded=0;sketch=0;fontColor=#393C56;strokeColor=#E07A5F;" vertex="1" parent="uK0X8DLzZR2Nq17mi_8r-72">
          <mxGeometry x="30" width="150" height="30" as="geometry">
            <mxRectangle width="150" height="30" as="alternateBounds" />
          </mxGeometry>
        </mxCell>
        <mxCell id="uK0X8DLzZR2Nq17mi_8r-75" value="TempleLikes" style="shape=table;startSize=30;container=1;collapsible=1;childLayout=tableLayout;fixedRows=1;rowLines=0;fontStyle=1;align=center;resizeLast=1;rounded=0;sketch=0;fontColor=#393C56;strokeColor=#E07A5F;fillColor=#F2CC8F;" vertex="1" parent="1">
          <mxGeometry x="280" y="230" width="180" height="130" as="geometry" />
        </mxCell>
        <mxCell id="uK0X8DLzZR2Nq17mi_8r-76" value="" style="shape=tableRow;horizontal=0;startSize=0;swimlaneHead=0;swimlaneBody=0;fillColor=none;collapsible=0;dropTarget=0;points=[[0,0.5],[1,0.5]];portConstraint=eastwest;top=0;left=0;right=0;bottom=1;rounded=0;sketch=0;fontColor=#393C56;strokeColor=#E07A5F;" vertex="1" parent="uK0X8DLzZR2Nq17mi_8r-75">
          <mxGeometry y="30" width="180" height="30" as="geometry" />
        </mxCell>
        <mxCell id="uK0X8DLzZR2Nq17mi_8r-77" value="PK" style="shape=partialRectangle;connectable=0;fillColor=none;top=0;left=0;bottom=0;right=0;fontStyle=1;overflow=hidden;rounded=0;sketch=0;fontColor=#393C56;strokeColor=#E07A5F;" vertex="1" parent="uK0X8DLzZR2Nq17mi_8r-76">
          <mxGeometry width="30" height="30" as="geometry">
            <mxRectangle width="30" height="30" as="alternateBounds" />
          </mxGeometry>
        </mxCell>
        <mxCell id="uK0X8DLzZR2Nq17mi_8r-78" value="id" style="shape=partialRectangle;connectable=0;fillColor=none;top=0;left=0;bottom=0;right=0;align=left;spacingLeft=6;fontStyle=5;overflow=hidden;rounded=0;sketch=0;fontColor=#393C56;strokeColor=#E07A5F;" vertex="1" parent="uK0X8DLzZR2Nq17mi_8r-76">
          <mxGeometry x="30" width="150" height="30" as="geometry">
            <mxRectangle width="150" height="30" as="alternateBounds" />
          </mxGeometry>
        </mxCell>
        <mxCell id="uK0X8DLzZR2Nq17mi_8r-79" value="" style="shape=tableRow;horizontal=0;startSize=0;swimlaneHead=0;swimlaneBody=0;fillColor=none;collapsible=0;dropTarget=0;points=[[0,0.5],[1,0.5]];portConstraint=eastwest;top=0;left=0;right=0;bottom=0;rounded=0;sketch=0;fontColor=#393C56;strokeColor=#E07A5F;" vertex="1" parent="uK0X8DLzZR2Nq17mi_8r-75">
          <mxGeometry y="60" width="180" height="30" as="geometry" />
        </mxCell>
        <mxCell id="uK0X8DLzZR2Nq17mi_8r-80" value="" style="shape=partialRectangle;connectable=0;fillColor=none;top=0;left=0;bottom=0;right=0;editable=1;overflow=hidden;rounded=0;sketch=0;fontColor=#393C56;strokeColor=#E07A5F;" vertex="1" parent="uK0X8DLzZR2Nq17mi_8r-79">
          <mxGeometry width="30" height="30" as="geometry">
            <mxRectangle width="30" height="30" as="alternateBounds" />
          </mxGeometry>
        </mxCell>
        <mxCell id="uK0X8DLzZR2Nq17mi_8r-81" value="temple_id" style="shape=partialRectangle;connectable=0;fillColor=none;top=0;left=0;bottom=0;right=0;align=left;spacingLeft=6;overflow=hidden;rounded=0;sketch=0;fontColor=#393C56;strokeColor=#E07A5F;" vertex="1" parent="uK0X8DLzZR2Nq17mi_8r-79">
          <mxGeometry x="30" width="150" height="30" as="geometry">
            <mxRectangle width="150" height="30" as="alternateBounds" />
          </mxGeometry>
        </mxCell>
        <mxCell id="uK0X8DLzZR2Nq17mi_8r-82" value="" style="shape=tableRow;horizontal=0;startSize=0;swimlaneHead=0;swimlaneBody=0;fillColor=none;collapsible=0;dropTarget=0;points=[[0,0.5],[1,0.5]];portConstraint=eastwest;top=0;left=0;right=0;bottom=0;rounded=0;sketch=0;fontColor=#393C56;strokeColor=#E07A5F;" vertex="1" parent="uK0X8DLzZR2Nq17mi_8r-75">
          <mxGeometry y="90" width="180" height="30" as="geometry" />
        </mxCell>
        <mxCell id="uK0X8DLzZR2Nq17mi_8r-83" value="" style="shape=partialRectangle;connectable=0;fillColor=none;top=0;left=0;bottom=0;right=0;editable=1;overflow=hidden;rounded=0;sketch=0;fontColor=#393C56;strokeColor=#E07A5F;" vertex="1" parent="uK0X8DLzZR2Nq17mi_8r-82">
          <mxGeometry width="30" height="30" as="geometry">
            <mxRectangle width="30" height="30" as="alternateBounds" />
          </mxGeometry>
        </mxCell>
        <mxCell id="uK0X8DLzZR2Nq17mi_8r-84" value="user_id" style="shape=partialRectangle;connectable=0;fillColor=none;top=0;left=0;bottom=0;right=0;align=left;spacingLeft=6;overflow=hidden;rounded=0;sketch=0;fontColor=#393C56;strokeColor=#E07A5F;" vertex="1" parent="uK0X8DLzZR2Nq17mi_8r-82">
          <mxGeometry x="30" width="150" height="30" as="geometry">
            <mxRectangle width="150" height="30" as="alternateBounds" />
          </mxGeometry>
        </mxCell>
        <mxCell id="uK0X8DLzZR2Nq17mi_8r-85" value="GreenteaPosts" style="shape=table;startSize=30;container=1;collapsible=1;childLayout=tableLayout;fixedRows=1;rowLines=0;fontStyle=1;align=center;resizeLast=1;rounded=0;sketch=0;fontColor=#393C56;strokeColor=#E07A5F;fillColor=#F2CC8F;" vertex="1" parent="1">
          <mxGeometry x="280" y="400" width="180" height="160" as="geometry" />
        </mxCell>
        <mxCell id="uK0X8DLzZR2Nq17mi_8r-86" value="" style="shape=tableRow;horizontal=0;startSize=0;swimlaneHead=0;swimlaneBody=0;fillColor=none;collapsible=0;dropTarget=0;points=[[0,0.5],[1,0.5]];portConstraint=eastwest;top=0;left=0;right=0;bottom=1;rounded=0;sketch=0;fontColor=#393C56;strokeColor=#E07A5F;" vertex="1" parent="uK0X8DLzZR2Nq17mi_8r-85">
          <mxGeometry y="30" width="180" height="30" as="geometry" />
        </mxCell>
        <mxCell id="uK0X8DLzZR2Nq17mi_8r-87" value="PK" style="shape=partialRectangle;connectable=0;fillColor=none;top=0;left=0;bottom=0;right=0;fontStyle=1;overflow=hidden;rounded=0;sketch=0;fontColor=#393C56;strokeColor=#E07A5F;" vertex="1" parent="uK0X8DLzZR2Nq17mi_8r-86">
          <mxGeometry width="30" height="30" as="geometry">
            <mxRectangle width="30" height="30" as="alternateBounds" />
          </mxGeometry>
        </mxCell>
        <mxCell id="uK0X8DLzZR2Nq17mi_8r-88" value="id" style="shape=partialRectangle;connectable=0;fillColor=none;top=0;left=0;bottom=0;right=0;align=left;spacingLeft=6;fontStyle=5;overflow=hidden;rounded=0;sketch=0;fontColor=#393C56;strokeColor=#E07A5F;" vertex="1" parent="uK0X8DLzZR2Nq17mi_8r-86">
          <mxGeometry x="30" width="150" height="30" as="geometry">
            <mxRectangle width="150" height="30" as="alternateBounds" />
          </mxGeometry>
        </mxCell>
        <mxCell id="uK0X8DLzZR2Nq17mi_8r-89" value="" style="shape=tableRow;horizontal=0;startSize=0;swimlaneHead=0;swimlaneBody=0;fillColor=none;collapsible=0;dropTarget=0;points=[[0,0.5],[1,0.5]];portConstraint=eastwest;top=0;left=0;right=0;bottom=0;rounded=0;sketch=0;fontColor=#393C56;strokeColor=#E07A5F;" vertex="1" parent="uK0X8DLzZR2Nq17mi_8r-85">
          <mxGeometry y="60" width="180" height="30" as="geometry" />
        </mxCell>
        <mxCell id="uK0X8DLzZR2Nq17mi_8r-90" value="" style="shape=partialRectangle;connectable=0;fillColor=none;top=0;left=0;bottom=0;right=0;editable=1;overflow=hidden;rounded=0;sketch=0;fontColor=#393C56;strokeColor=#E07A5F;" vertex="1" parent="uK0X8DLzZR2Nq17mi_8r-89">
          <mxGeometry width="30" height="30" as="geometry">
            <mxRectangle width="30" height="30" as="alternateBounds" />
          </mxGeometry>
        </mxCell>
        <mxCell id="uK0X8DLzZR2Nq17mi_8r-91" value="content" style="shape=partialRectangle;connectable=0;fillColor=none;top=0;left=0;bottom=0;right=0;align=left;spacingLeft=6;overflow=hidden;rounded=0;sketch=0;fontColor=#393C56;strokeColor=#E07A5F;" vertex="1" parent="uK0X8DLzZR2Nq17mi_8r-89">
          <mxGeometry x="30" width="150" height="30" as="geometry">
            <mxRectangle width="150" height="30" as="alternateBounds" />
          </mxGeometry>
        </mxCell>
        <mxCell id="uK0X8DLzZR2Nq17mi_8r-92" value="" style="shape=tableRow;horizontal=0;startSize=0;swimlaneHead=0;swimlaneBody=0;fillColor=none;collapsible=0;dropTarget=0;points=[[0,0.5],[1,0.5]];portConstraint=eastwest;top=0;left=0;right=0;bottom=0;rounded=0;sketch=0;fontColor=#393C56;strokeColor=#E07A5F;" vertex="1" parent="uK0X8DLzZR2Nq17mi_8r-85">
          <mxGeometry y="90" width="180" height="30" as="geometry" />
        </mxCell>
        <mxCell id="uK0X8DLzZR2Nq17mi_8r-93" value="" style="shape=partialRectangle;connectable=0;fillColor=none;top=0;left=0;bottom=0;right=0;editable=1;overflow=hidden;rounded=0;sketch=0;fontColor=#393C56;strokeColor=#E07A5F;" vertex="1" parent="uK0X8DLzZR2Nq17mi_8r-92">
          <mxGeometry width="30" height="30" as="geometry">
            <mxRectangle width="30" height="30" as="alternateBounds" />
          </mxGeometry>
        </mxCell>
        <mxCell id="uK0X8DLzZR2Nq17mi_8r-94" value="greentea_id" style="shape=partialRectangle;connectable=0;fillColor=none;top=0;left=0;bottom=0;right=0;align=left;spacingLeft=6;overflow=hidden;rounded=0;sketch=0;fontColor=#393C56;strokeColor=#E07A5F;" vertex="1" parent="uK0X8DLzZR2Nq17mi_8r-92">
          <mxGeometry x="30" width="150" height="30" as="geometry">
            <mxRectangle width="150" height="30" as="alternateBounds" />
          </mxGeometry>
        </mxCell>
        <mxCell id="uK0X8DLzZR2Nq17mi_8r-95" style="shape=tableRow;horizontal=0;startSize=0;swimlaneHead=0;swimlaneBody=0;fillColor=none;collapsible=0;dropTarget=0;points=[[0,0.5],[1,0.5]];portConstraint=eastwest;top=0;left=0;right=0;bottom=0;rounded=0;sketch=0;fontColor=#393C56;strokeColor=#E07A5F;" vertex="1" parent="uK0X8DLzZR2Nq17mi_8r-85">
          <mxGeometry y="120" width="180" height="30" as="geometry" />
        </mxCell>
        <mxCell id="uK0X8DLzZR2Nq17mi_8r-96" style="shape=partialRectangle;connectable=0;fillColor=none;top=0;left=0;bottom=0;right=0;editable=1;overflow=hidden;rounded=0;sketch=0;fontColor=#393C56;strokeColor=#E07A5F;" vertex="1" parent="uK0X8DLzZR2Nq17mi_8r-95">
          <mxGeometry width="30" height="30" as="geometry">
            <mxRectangle width="30" height="30" as="alternateBounds" />
          </mxGeometry>
        </mxCell>
        <mxCell id="uK0X8DLzZR2Nq17mi_8r-97" value="user_id" style="shape=partialRectangle;connectable=0;fillColor=none;top=0;left=0;bottom=0;right=0;align=left;spacingLeft=6;overflow=hidden;rounded=0;sketch=0;fontColor=#393C56;strokeColor=#E07A5F;" vertex="1" parent="uK0X8DLzZR2Nq17mi_8r-95">
          <mxGeometry x="30" width="150" height="30" as="geometry">
            <mxRectangle width="150" height="30" as="alternateBounds" />
          </mxGeometry>
        </mxCell>
        <mxCell id="uK0X8DLzZR2Nq17mi_8r-98" value="TemplePosts" style="shape=table;startSize=30;container=1;collapsible=1;childLayout=tableLayout;fixedRows=1;rowLines=0;fontStyle=1;align=center;resizeLast=1;rounded=0;sketch=0;fontColor=#393C56;strokeColor=#E07A5F;fillColor=#F2CC8F;" vertex="1" parent="1">
          <mxGeometry x="280" y="590" width="180" height="160" as="geometry" />
        </mxCell>
        <mxCell id="uK0X8DLzZR2Nq17mi_8r-99" value="" style="shape=tableRow;horizontal=0;startSize=0;swimlaneHead=0;swimlaneBody=0;fillColor=none;collapsible=0;dropTarget=0;points=[[0,0.5],[1,0.5]];portConstraint=eastwest;top=0;left=0;right=0;bottom=1;rounded=0;sketch=0;fontColor=#393C56;strokeColor=#E07A5F;" vertex="1" parent="uK0X8DLzZR2Nq17mi_8r-98">
          <mxGeometry y="30" width="180" height="30" as="geometry" />
        </mxCell>
        <mxCell id="uK0X8DLzZR2Nq17mi_8r-100" value="PK" style="shape=partialRectangle;connectable=0;fillColor=none;top=0;left=0;bottom=0;right=0;fontStyle=1;overflow=hidden;rounded=0;sketch=0;fontColor=#393C56;strokeColor=#E07A5F;" vertex="1" parent="uK0X8DLzZR2Nq17mi_8r-99">
          <mxGeometry width="30" height="30" as="geometry">
            <mxRectangle width="30" height="30" as="alternateBounds" />
          </mxGeometry>
        </mxCell>
        <mxCell id="uK0X8DLzZR2Nq17mi_8r-101" value="id" style="shape=partialRectangle;connectable=0;fillColor=none;top=0;left=0;bottom=0;right=0;align=left;spacingLeft=6;fontStyle=5;overflow=hidden;rounded=0;sketch=0;fontColor=#393C56;strokeColor=#E07A5F;" vertex="1" parent="uK0X8DLzZR2Nq17mi_8r-99">
          <mxGeometry x="30" width="150" height="30" as="geometry">
            <mxRectangle width="150" height="30" as="alternateBounds" />
          </mxGeometry>
        </mxCell>
        <mxCell id="uK0X8DLzZR2Nq17mi_8r-102" value="" style="shape=tableRow;horizontal=0;startSize=0;swimlaneHead=0;swimlaneBody=0;fillColor=none;collapsible=0;dropTarget=0;points=[[0,0.5],[1,0.5]];portConstraint=eastwest;top=0;left=0;right=0;bottom=0;rounded=0;sketch=0;fontColor=#393C56;strokeColor=#E07A5F;" vertex="1" parent="uK0X8DLzZR2Nq17mi_8r-98">
          <mxGeometry y="60" width="180" height="30" as="geometry" />
        </mxCell>
        <mxCell id="uK0X8DLzZR2Nq17mi_8r-103" value="" style="shape=partialRectangle;connectable=0;fillColor=none;top=0;left=0;bottom=0;right=0;editable=1;overflow=hidden;rounded=0;sketch=0;fontColor=#393C56;strokeColor=#E07A5F;" vertex="1" parent="uK0X8DLzZR2Nq17mi_8r-102">
          <mxGeometry width="30" height="30" as="geometry">
            <mxRectangle width="30" height="30" as="alternateBounds" />
          </mxGeometry>
        </mxCell>
        <mxCell id="uK0X8DLzZR2Nq17mi_8r-104" value="content" style="shape=partialRectangle;connectable=0;fillColor=none;top=0;left=0;bottom=0;right=0;align=left;spacingLeft=6;overflow=hidden;rounded=0;sketch=0;fontColor=#393C56;strokeColor=#E07A5F;" vertex="1" parent="uK0X8DLzZR2Nq17mi_8r-102">
          <mxGeometry x="30" width="150" height="30" as="geometry">
            <mxRectangle width="150" height="30" as="alternateBounds" />
          </mxGeometry>
        </mxCell>
        <mxCell id="uK0X8DLzZR2Nq17mi_8r-105" value="" style="shape=tableRow;horizontal=0;startSize=0;swimlaneHead=0;swimlaneBody=0;fillColor=none;collapsible=0;dropTarget=0;points=[[0,0.5],[1,0.5]];portConstraint=eastwest;top=0;left=0;right=0;bottom=0;rounded=0;sketch=0;fontColor=#393C56;strokeColor=#E07A5F;" vertex="1" parent="uK0X8DLzZR2Nq17mi_8r-98">
          <mxGeometry y="90" width="180" height="30" as="geometry" />
        </mxCell>
        <mxCell id="uK0X8DLzZR2Nq17mi_8r-106" value="" style="shape=partialRectangle;connectable=0;fillColor=none;top=0;left=0;bottom=0;right=0;editable=1;overflow=hidden;rounded=0;sketch=0;fontColor=#393C56;strokeColor=#E07A5F;" vertex="1" parent="uK0X8DLzZR2Nq17mi_8r-105">
          <mxGeometry width="30" height="30" as="geometry">
            <mxRectangle width="30" height="30" as="alternateBounds" />
          </mxGeometry>
        </mxCell>
        <mxCell id="uK0X8DLzZR2Nq17mi_8r-107" value="temple_id" style="shape=partialRectangle;connectable=0;fillColor=none;top=0;left=0;bottom=0;right=0;align=left;spacingLeft=6;overflow=hidden;rounded=0;sketch=0;fontColor=#393C56;strokeColor=#E07A5F;" vertex="1" parent="uK0X8DLzZR2Nq17mi_8r-105">
          <mxGeometry x="30" width="150" height="30" as="geometry">
            <mxRectangle width="150" height="30" as="alternateBounds" />
          </mxGeometry>
        </mxCell>
        <mxCell id="uK0X8DLzZR2Nq17mi_8r-108" style="shape=tableRow;horizontal=0;startSize=0;swimlaneHead=0;swimlaneBody=0;fillColor=none;collapsible=0;dropTarget=0;points=[[0,0.5],[1,0.5]];portConstraint=eastwest;top=0;left=0;right=0;bottom=0;rounded=0;sketch=0;fontColor=#393C56;strokeColor=#E07A5F;" vertex="1" parent="uK0X8DLzZR2Nq17mi_8r-98">
          <mxGeometry y="120" width="180" height="30" as="geometry" />
        </mxCell>
        <mxCell id="uK0X8DLzZR2Nq17mi_8r-109" style="shape=partialRectangle;connectable=0;fillColor=none;top=0;left=0;bottom=0;right=0;editable=1;overflow=hidden;rounded=0;sketch=0;fontColor=#393C56;strokeColor=#E07A5F;" vertex="1" parent="uK0X8DLzZR2Nq17mi_8r-108">
          <mxGeometry width="30" height="30" as="geometry">
            <mxRectangle width="30" height="30" as="alternateBounds" />
          </mxGeometry>
        </mxCell>
        <mxCell id="uK0X8DLzZR2Nq17mi_8r-110" value="user_id" style="shape=partialRectangle;connectable=0;fillColor=none;top=0;left=0;bottom=0;right=0;align=left;spacingLeft=6;overflow=hidden;rounded=0;sketch=0;fontColor=#393C56;strokeColor=#E07A5F;" vertex="1" parent="uK0X8DLzZR2Nq17mi_8r-108">
          <mxGeometry x="30" width="150" height="30" as="geometry">
            <mxRectangle width="150" height="30" as="alternateBounds" />
          </mxGeometry>
        </mxCell>
        <mxCell id="uK0X8DLzZR2Nq17mi_8r-121" value="TemplePosts" style="shape=table;startSize=30;container=1;collapsible=1;childLayout=tableLayout;fixedRows=1;rowLines=0;fontStyle=1;align=center;resizeLast=1;rounded=0;sketch=0;fontColor=#393C56;strokeColor=#E07A5F;fillColor=#F2CC8F;" vertex="1" parent="1">
          <mxGeometry x="280" y="780" width="180" height="160" as="geometry" />
        </mxCell>
        <mxCell id="uK0X8DLzZR2Nq17mi_8r-122" value="" style="shape=tableRow;horizontal=0;startSize=0;swimlaneHead=0;swimlaneBody=0;fillColor=none;collapsible=0;dropTarget=0;points=[[0,0.5],[1,0.5]];portConstraint=eastwest;top=0;left=0;right=0;bottom=1;rounded=0;sketch=0;fontColor=#393C56;strokeColor=#E07A5F;" vertex="1" parent="uK0X8DLzZR2Nq17mi_8r-121">
          <mxGeometry y="30" width="180" height="30" as="geometry" />
        </mxCell>
        <mxCell id="uK0X8DLzZR2Nq17mi_8r-123" value="PK" style="shape=partialRectangle;connectable=0;fillColor=none;top=0;left=0;bottom=0;right=0;fontStyle=1;overflow=hidden;rounded=0;sketch=0;fontColor=#393C56;strokeColor=#E07A5F;" vertex="1" parent="uK0X8DLzZR2Nq17mi_8r-122">
          <mxGeometry width="30" height="30" as="geometry">
            <mxRectangle width="30" height="30" as="alternateBounds" />
          </mxGeometry>
        </mxCell>
        <mxCell id="uK0X8DLzZR2Nq17mi_8r-124" value="id" style="shape=partialRectangle;connectable=0;fillColor=none;top=0;left=0;bottom=0;right=0;align=left;spacingLeft=6;fontStyle=5;overflow=hidden;rounded=0;sketch=0;fontColor=#393C56;strokeColor=#E07A5F;" vertex="1" parent="uK0X8DLzZR2Nq17mi_8r-122">
          <mxGeometry x="30" width="150" height="30" as="geometry">
            <mxRectangle width="150" height="30" as="alternateBounds" />
          </mxGeometry>
        </mxCell>
        <mxCell id="uK0X8DLzZR2Nq17mi_8r-125" value="" style="shape=tableRow;horizontal=0;startSize=0;swimlaneHead=0;swimlaneBody=0;fillColor=none;collapsible=0;dropTarget=0;points=[[0,0.5],[1,0.5]];portConstraint=eastwest;top=0;left=0;right=0;bottom=0;rounded=0;sketch=0;fontColor=#393C56;strokeColor=#E07A5F;" vertex="1" parent="uK0X8DLzZR2Nq17mi_8r-121">
          <mxGeometry y="60" width="180" height="30" as="geometry" />
        </mxCell>
        <mxCell id="uK0X8DLzZR2Nq17mi_8r-126" value="" style="shape=partialRectangle;connectable=0;fillColor=none;top=0;left=0;bottom=0;right=0;editable=1;overflow=hidden;rounded=0;sketch=0;fontColor=#393C56;strokeColor=#E07A5F;" vertex="1" parent="uK0X8DLzZR2Nq17mi_8r-125">
          <mxGeometry width="30" height="30" as="geometry">
            <mxRectangle width="30" height="30" as="alternateBounds" />
          </mxGeometry>
        </mxCell>
        <mxCell id="uK0X8DLzZR2Nq17mi_8r-127" value="content" style="shape=partialRectangle;connectable=0;fillColor=none;top=0;left=0;bottom=0;right=0;align=left;spacingLeft=6;overflow=hidden;rounded=0;sketch=0;fontColor=#393C56;strokeColor=#E07A5F;" vertex="1" parent="uK0X8DLzZR2Nq17mi_8r-125">
          <mxGeometry x="30" width="150" height="30" as="geometry">
            <mxRectangle width="150" height="30" as="alternateBounds" />
          </mxGeometry>
        </mxCell>
        <mxCell id="uK0X8DLzZR2Nq17mi_8r-128" value="" style="shape=tableRow;horizontal=0;startSize=0;swimlaneHead=0;swimlaneBody=0;fillColor=none;collapsible=0;dropTarget=0;points=[[0,0.5],[1,0.5]];portConstraint=eastwest;top=0;left=0;right=0;bottom=0;rounded=0;sketch=0;fontColor=#393C56;strokeColor=#E07A5F;" vertex="1" parent="uK0X8DLzZR2Nq17mi_8r-121">
          <mxGeometry y="90" width="180" height="30" as="geometry" />
        </mxCell>
        <mxCell id="uK0X8DLzZR2Nq17mi_8r-129" value="" style="shape=partialRectangle;connectable=0;fillColor=none;top=0;left=0;bottom=0;right=0;editable=1;overflow=hidden;rounded=0;sketch=0;fontColor=#393C56;strokeColor=#E07A5F;" vertex="1" parent="uK0X8DLzZR2Nq17mi_8r-128">
          <mxGeometry width="30" height="30" as="geometry">
            <mxRectangle width="30" height="30" as="alternateBounds" />
          </mxGeometry>
        </mxCell>
        <mxCell id="uK0X8DLzZR2Nq17mi_8r-130" value="temple_id" style="shape=partialRectangle;connectable=0;fillColor=none;top=0;left=0;bottom=0;right=0;align=left;spacingLeft=6;overflow=hidden;rounded=0;sketch=0;fontColor=#393C56;strokeColor=#E07A5F;" vertex="1" parent="uK0X8DLzZR2Nq17mi_8r-128">
          <mxGeometry x="30" width="150" height="30" as="geometry">
            <mxRectangle width="150" height="30" as="alternateBounds" />
          </mxGeometry>
        </mxCell>
        <mxCell id="uK0X8DLzZR2Nq17mi_8r-131" style="shape=tableRow;horizontal=0;startSize=0;swimlaneHead=0;swimlaneBody=0;fillColor=none;collapsible=0;dropTarget=0;points=[[0,0.5],[1,0.5]];portConstraint=eastwest;top=0;left=0;right=0;bottom=0;rounded=0;sketch=0;fontColor=#393C56;strokeColor=#E07A5F;" vertex="1" parent="uK0X8DLzZR2Nq17mi_8r-121">
          <mxGeometry y="120" width="180" height="30" as="geometry" />
        </mxCell>
        <mxCell id="uK0X8DLzZR2Nq17mi_8r-132" style="shape=partialRectangle;connectable=0;fillColor=none;top=0;left=0;bottom=0;right=0;editable=1;overflow=hidden;rounded=0;sketch=0;fontColor=#393C56;strokeColor=#E07A5F;" vertex="1" parent="uK0X8DLzZR2Nq17mi_8r-131">
          <mxGeometry width="30" height="30" as="geometry">
            <mxRectangle width="30" height="30" as="alternateBounds" />
          </mxGeometry>
        </mxCell>
        <mxCell id="uK0X8DLzZR2Nq17mi_8r-133" value="user_id" style="shape=partialRectangle;connectable=0;fillColor=none;top=0;left=0;bottom=0;right=0;align=left;spacingLeft=6;overflow=hidden;rounded=0;sketch=0;fontColor=#393C56;strokeColor=#E07A5F;" vertex="1" parent="uK0X8DLzZR2Nq17mi_8r-131">
          <mxGeometry x="30" width="150" height="30" as="geometry">
            <mxRectangle width="150" height="30" as="alternateBounds" />
          </mxGeometry>
        </mxCell>
      </root>
    </mxGraphModel>
  </diagram>
</mxfile>
